<svg version="1.1" id="Layer_1" xmlns="http://www.w3.org/2000/svg" xmlns:xlink="http://www.w3.org/1999/xlink" x="0px" y="0px"
	 width="100%" viewBox="0 0 512 512" enable-background="new 0 0 512 512" xml:space="preserve">
<path fill="#550000" opacity="1.000000" stroke="none" 
	d="
M0.999990,476.000000 
	C1.000000,330.309265 1.000000,184.618515 1.345690,38.390995 
	C2.292235,36.900150 3.084491,36.016476 3.465202,34.981434 
	C9.078339,19.720907 19.518236,9.315445 34.703655,3.556183 
	C35.946777,3.084713 36.907864,1.869584 38.000000,0.999999 
	C183.690750,1.000000 329.381500,1.000000 475.608948,1.345696 
	C477.099823,2.292108 477.984222,3.080091 479.018585,3.465426 
	C494.226440,9.130711 504.736938,19.465042 510.445221,34.702927 
	C510.911072,35.946453 512.130676,36.907619 513.000000,37.999996 
	C513.000000,183.690750 513.000000,329.381500 512.654297,475.608948 
	C511.707581,477.100311 510.916748,477.984833 510.534058,479.020172 
	C504.901855,494.259430 494.516266,504.717010 479.299225,510.443817 
	C478.055054,510.912048 477.093079,512.130249 476.000000,513.000000 
	C330.309265,513.000000 184.618515,513.000000 38.390957,512.654297 
	C36.899384,511.707703 36.014725,510.917206 34.979328,510.534302 
	C19.742731,504.899414 9.280051,494.519073 3.556165,479.299225 
	C3.088237,478.055023 1.869723,477.093109 0.999990,476.000000 
M268.732361,193.438766 
	C277.462616,199.248352 280.020721,209.998444 275.267914,220.359833 
	C273.859161,223.431030 272.165405,224.849503 268.377136,224.415527 
	C264.493683,223.970657 260.397888,224.511673 256.510498,225.238739 
	C253.298859,225.839401 250.677826,227.591522 250.736740,231.640396 
	C250.793488,235.540283 253.007278,237.547836 256.422424,238.094894 
	C260.329437,238.720749 264.354065,239.220291 268.275055,238.965622 
	C271.640350,238.747055 273.641876,239.830658 275.085297,242.632355 
	C279.648193,251.489136 280.638336,260.810089 277.538391,270.185394 
	C276.522003,273.259247 273.874542,276.219238 271.221832,278.250214 
	C261.668335,285.564575 250.895096,284.319153 240.174667,281.535889 
	C239.229309,281.290466 238.101929,278.949219 238.248596,277.723755 
	C239.864807,264.219086 241.706543,250.741272 243.508133,237.258987 
	C245.000977,226.087311 246.809128,214.947479 247.905365,203.737579 
	C248.428986,198.383224 245.525345,196.910156 241.220306,200.320236 
	C238.055649,202.827026 234.908829,206.122574 233.357056,209.751984 
	C229.126785,219.645981 225.003433,229.704712 222.232056,240.070938 
	C219.293304,251.063324 217.958542,262.484558 215.883774,273.936432 
	C215.271347,273.868195 214.124237,273.600739 212.987823,273.640289 
	C209.706787,273.754425 204.483627,272.827942 203.536285,274.411652 
	C201.197449,278.321503 205.142075,281.351501 208.039490,283.782318 
	C210.440109,285.796356 213.101929,287.703339 215.961288,288.923798 
	C221.916412,291.465698 227.958160,293.953033 234.179398,295.694427 
	C251.135757,300.440796 268.129028,300.843079 284.604736,293.769623 
	C296.155823,288.810425 304.349396,280.520203 305.644989,267.432770 
	C306.964111,254.107452 302.927032,242.764160 291.283112,234.973160 
	C289.974030,234.097260 288.749573,233.094879 288.575165,232.964645 
	C292.968048,227.123657 298.641510,222.344620 300.671356,216.334900 
	C305.687225,201.484497 300.791107,186.874374 284.847992,180.051331 
	C271.149048,174.188736 256.810181,173.425858 242.313919,176.862061 
	C230.978638,179.548981 221.229813,185.031601 213.927841,194.239777 
	C212.577942,195.942078 212.419800,198.589447 211.711609,200.800644 
	C214.090530,200.680374 216.606583,201.006348 218.814056,200.328064 
	C221.640274,199.459671 224.187988,197.717346 226.907806,196.464722 
	C240.199829,190.343140 253.823181,188.109375 268.732361,193.438766 
M374.682892,255.278458 
	C377.893433,236.622406 381.199890,217.982162 384.277832,199.304260 
	C386.067413,188.444626 383.160767,183.307800 372.397644,181.254196 
	C363.506012,179.557663 354.195953,178.779861 345.177704,179.332352 
	C332.939728,180.082077 321.288940,183.844772 311.968567,192.452499 
	C310.441010,193.863281 310.167877,196.632355 309.314941,198.773651 
	C311.596924,199.298782 314.011505,200.583237 316.136963,200.212097 
	C323.661774,198.898102 331.028320,196.640350 338.567261,195.455109 
	C346.719635,194.173386 355.099579,192.935196 362.628815,198.437454 
	C362.451385,199.221878 362.373505,199.876511 362.156433,200.481171 
	C352.511780,227.345566 345.492889,254.845779 341.725739,283.174591 
	C341.494019,284.917267 339.409424,287.091431 337.662659,287.837677 
	C330.018372,291.103546 322.012360,293.549377 314.465149,297.007599 
	C308.155823,299.898621 301.872559,303.230042 296.426788,307.459595 
	C293.719727,309.562134 291.558441,314.107269 291.528687,317.567871 
	C291.459045,325.666504 295.862091,331.752136 303.400299,335.101929 
	C321.334503,343.071381 343.466370,341.119263 355.539307,320.280701 
	C359.913666,312.730316 362.844910,304.304352 366.007629,296.113037 
	C367.104675,293.271698 368.413300,291.538849 371.190430,290.113342 
	C378.855042,286.178925 386.589844,282.209473 393.625275,277.292847 
	C397.197266,274.796631 399.876404,270.503876 401.864960,266.482269 
	C402.843231,264.503876 401.331940,261.294495 400.947235,258.642120 
	C398.763519,259.815216 396.148346,260.557800 394.472382,262.237488 
	C387.952820,268.771484 379.686188,271.801331 370.541199,275.666687 
	C371.981628,268.377655 373.196472,262.230011 374.682892,255.278458 
M161.236435,252.230896 
	C175.304031,254.029709 187.014877,249.730850 196.539337,239.090363 
	C215.555801,217.845627 207.830811,187.231232 180.891190,178.385498 
	C167.988068,174.148697 154.740723,173.663635 141.604324,177.512680 
	C132.269150,180.247971 123.334610,184.080429 116.877472,191.713486 
	C114.833702,194.129440 114.096642,197.650803 112.761574,200.666290 
	C116.015648,200.173355 119.631523,200.424606 122.457298,199.050735 
	C131.666351,194.573380 140.965683,190.919113 151.378860,190.502609 
	C174.664505,189.571274 186.634323,200.320633 179.991379,225.154129 
	C179.819901,225.795135 179.581772,226.419785 179.350708,227.043167 
	C176.859787,233.763107 172.161423,238.155334 165.242294,239.957108 
	C161.392700,240.959564 157.393585,241.388306 153.544693,242.392929 
	C149.525742,243.441940 148.671005,246.929092 152.080490,249.248917 
	C154.420303,250.840958 157.584152,251.221863 161.236435,252.230896 
M118.246063,257.622192 
	C117.271431,266.697937 115.602806,275.764709 115.485931,284.851501 
	C115.313553,298.253265 116.210625,299.793182 131.340591,296.702576 
	C136.971664,295.552338 138.821289,292.675293 139.173721,286.827850 
	C140.211609,269.606964 141.040375,252.414963 144.905029,235.442108 
	C147.245911,225.161392 147.845444,214.474014 149.001266,203.944519 
	C149.175781,202.354767 148.116043,200.629532 147.627228,198.966965 
	C145.803421,199.521759 143.300278,199.509109 142.277802,200.733215 
	C138.586731,205.152328 134.210602,209.540787 132.242462,214.752502 
	C127.035652,228.540329 122.952820,242.752625 118.246063,257.622192 
z"/>
<path fill="#000000" opacity="1.000000" stroke="none" 
	d="
M37.531342,0.999999 
	C36.907864,1.869584 35.946777,3.084713 34.703655,3.556183 
	C19.518236,9.315445 9.078339,19.720907 3.465202,34.981434 
	C3.084491,36.016476 2.292235,36.900150 1.345690,37.927109 
	C1.000000,25.740049 1.000000,13.480098 1.000000,1.000000 
	C13.020000,1.000000 25.041342,1.000000 37.531342,0.999999 
z"/>
<path fill="#000000" opacity="1.000000" stroke="none" 
	d="
M513.000000,37.531338 
	C512.130676,36.907619 510.911072,35.946453 510.445221,34.702927 
	C504.736938,19.465042 494.226440,9.130711 479.018585,3.465426 
	C477.984222,3.080091 477.099823,2.292108 476.072845,1.345696 
	C488.259949,1.000000 500.519897,1.000000 513.000000,1.000000 
	C513.000000,13.020000 513.000000,25.041342 513.000000,37.531338 
z"/>
<path fill="#000000" opacity="1.000000" stroke="none" 
	d="
M0.999990,476.468689 
	C1.869723,477.093109 3.088237,478.055023 3.556165,479.299225 
	C9.280051,494.519073 19.742731,504.899414 34.979328,510.534302 
	C36.014725,510.917206 36.899384,511.707703 37.927071,512.654297 
	C25.740049,513.000000 13.480098,513.000000 1.000000,513.000000 
	C1.000000,500.980011 1.000000,488.958649 0.999990,476.468689 
z"/>
<path fill="#000000" opacity="1.000000" stroke="none" 
	d="
M476.468658,513.000000 
	C477.093079,512.130249 478.055054,510.912048 479.299225,510.443817 
	C494.516266,504.717010 504.901855,494.259430 510.534058,479.020172 
	C510.916748,477.984833 511.707581,477.100311 512.654297,476.072815 
	C513.000000,488.259949 513.000000,500.519897 513.000000,513.000000 
	C500.980011,513.000000 488.958649,513.000000 476.468658,513.000000 
z"/>
<path fill="#FDA854" opacity="1.000000" stroke="none" 
	d="
M268.381500,193.269135 
	C253.823181,188.109375 240.199829,190.343140 226.907806,196.464722 
	C224.187988,197.717346 221.640274,199.459671 218.814056,200.328064 
	C216.606583,201.006348 214.090530,200.680374 211.711609,200.800644 
	C212.419800,198.589447 212.577942,195.942078 213.927841,194.239777 
	C221.229813,185.031601 230.978638,179.548981 242.313919,176.862061 
	C256.810181,173.425858 271.149048,174.188736 284.847992,180.051331 
	C300.791107,186.874374 305.687225,201.484497 300.671356,216.334900 
	C298.641510,222.344620 292.968048,227.123657 288.575165,232.964645 
	C288.749573,233.094879 289.974030,234.097260 291.283112,234.973160 
	C302.927032,242.764160 306.964111,254.107452 305.644989,267.432770 
	C304.349396,280.520203 296.155823,288.810425 284.604736,293.769623 
	C268.129028,300.843079 251.135757,300.440796 234.179398,295.694427 
	C227.958160,293.953033 221.916412,291.465698 215.961288,288.923798 
	C213.101929,287.703339 210.440109,285.796356 208.039490,283.782318 
	C205.142075,281.351501 201.197449,278.321503 203.536285,274.411652 
	C204.483627,272.827942 209.706787,273.754425 212.987823,273.640289 
	C214.124237,273.600739 215.271347,273.868195 215.883774,273.936432 
	C217.958542,262.484558 219.293304,251.063324 222.232056,240.070938 
	C225.003433,229.704712 229.126785,219.645981 233.357056,209.751984 
	C234.908829,206.122574 238.055649,202.827026 241.220306,200.320236 
	C245.525345,196.910156 248.428986,198.383224 247.905365,203.737579 
	C246.809128,214.947479 245.000977,226.087311 243.508133,237.258987 
	C241.706543,250.741272 239.864807,264.219086 238.248596,277.723755 
	C238.101929,278.949219 239.229309,281.290466 240.174667,281.535889 
	C250.895096,284.319153 261.668335,285.564575 271.221832,278.250214 
	C273.874542,276.219238 276.522003,273.259247 277.538391,270.185394 
	C280.638336,260.810089 279.648193,251.489136 275.085297,242.632355 
	C273.641876,239.830658 271.640350,238.747055 268.275055,238.965622 
	C264.354065,239.220291 260.329437,238.720749 256.422424,238.094894 
	C253.007278,237.547836 250.793488,235.540283 250.736740,231.640396 
	C250.677826,227.591522 253.298859,225.839401 256.510498,225.238739 
	C260.397888,224.511673 264.493683,223.970657 268.377136,224.415527 
	C272.165405,224.849503 273.859161,223.431030 275.267914,220.359833 
	C280.020721,209.998444 277.462616,199.248352 268.381500,193.269135 
z"/>
<path fill="#FDA854" opacity="1.000000" stroke="none" 
	d="
M374.547119,255.680420 
	C373.196472,262.230011 371.981628,268.377655 370.541199,275.666687 
	C379.686188,271.801331 387.952820,268.771484 394.472382,262.237488 
	C396.148346,260.557800 398.763519,259.815216 400.947235,258.642151 
	C401.331940,261.294495 402.843231,264.503876 401.864960,266.482269 
	C399.876404,270.503876 397.197266,274.796631 393.625275,277.292847 
	C386.589844,282.209473 378.855042,286.178925 371.190430,290.113342 
	C368.413300,291.538849 367.104675,293.271698 366.007629,296.113037 
	C362.844910,304.304352 359.913666,312.730316 355.539307,320.280701 
	C343.466370,341.119263 321.334503,343.071381 303.400299,335.101929 
	C295.862091,331.752136 291.459045,325.666504 291.528687,317.567871 
	C291.558441,314.107269 293.719727,309.562134 296.426788,307.459595 
	C301.872559,303.230042 308.155823,299.898621 314.465149,297.007599 
	C322.012360,293.549377 330.018372,291.103546 337.662659,287.837677 
	C339.409424,287.091431 341.494019,284.917267 341.725739,283.174591 
	C345.492889,254.845779 352.511780,227.345566 362.156433,200.481171 
	C362.373505,199.876511 362.451385,199.221878 362.628815,198.437454 
	C355.099579,192.935196 346.719635,194.173386 338.567261,195.455109 
	C331.028320,196.640350 323.661774,198.898102 316.136963,200.212097 
	C314.011505,200.583237 311.596924,199.298782 309.314941,198.773651 
	C310.167877,196.632355 310.441010,193.863281 311.968567,192.452499 
	C321.288940,183.844772 332.939728,180.082077 345.177704,179.332352 
	C354.195953,178.779861 363.506012,179.557663 372.397644,181.254196 
	C383.160767,183.307800 386.067413,188.444626 384.277832,199.304260 
	C381.199890,217.982162 377.893433,236.622406 374.547119,255.680420 
M330.031311,305.669037 
	C323.830444,308.051056 317.567596,310.286560 311.453125,312.872803 
	C308.051727,314.311462 306.752686,317.163971 308.494568,320.656860 
	C311.672272,327.028748 324.655670,328.830261 329.443878,323.566132 
	C334.535675,317.968262 336.442963,311.028687 337.975189,303.138153 
	C335.078796,304.028290 332.911133,304.694458 330.031311,305.669037 
z"/>
<path fill="#FCA754" opacity="1.000000" stroke="none" 
	d="
M160.808044,252.187515 
	C157.584152,251.221863 154.420303,250.840958 152.080490,249.248917 
	C148.671005,246.929092 149.525742,243.441940 153.544693,242.392929 
	C157.393585,241.388306 161.392700,240.959564 165.242294,239.957108 
	C172.161423,238.155334 176.859787,233.763107 179.350708,227.043167 
	C179.581772,226.419785 179.819901,225.795135 179.991379,225.154129 
	C186.634323,200.320633 174.664505,189.571274 151.378860,190.502609 
	C140.965683,190.919113 131.666351,194.573380 122.457298,199.050735 
	C119.631523,200.424606 116.015648,200.173355 112.761581,200.666290 
	C114.096642,197.650803 114.833702,194.129440 116.877472,191.713486 
	C123.334610,184.080429 132.269150,180.247971 141.604324,177.512680 
	C154.740723,173.663635 167.988068,174.148697 180.891190,178.385498 
	C207.830811,187.231232 215.555801,217.845627 196.539337,239.090363 
	C187.014877,249.730850 175.304031,254.029709 160.808044,252.187515 
z"/>
<path fill="#FCA754" opacity="1.000000" stroke="none" 
	d="
M118.334358,257.209106 
	C122.952820,242.752625 127.035652,228.540329 132.242462,214.752502 
	C134.210602,209.540787 138.586731,205.152328 142.277802,200.733215 
	C143.300278,199.509109 145.803421,199.521759 147.627228,198.966965 
	C148.116043,200.629532 149.175781,202.354767 149.001266,203.944519 
	C147.845444,214.474014 147.245911,225.161392 144.905029,235.442108 
	C141.040375,252.414963 140.211609,269.606964 139.173721,286.827850 
	C138.821289,292.675293 136.971664,295.552338 131.340591,296.702576 
	C116.210625,299.793182 115.313553,298.253265 115.485931,284.851501 
	C115.602806,275.764709 117.271431,266.697937 118.334358,257.209106 
z"/>
<path fill="#5A0502" opacity="1.000000" stroke="none" 
	d="
M330.387390,305.514832 
	C332.911133,304.694458 335.078796,304.028290 337.975189,303.138153 
	C336.442963,311.028687 334.535675,317.968262 329.443878,323.566132 
	C324.655670,328.830261 311.672272,327.028748 308.494568,320.656860 
	C306.752686,317.163971 308.051727,314.311462 311.453125,312.872803 
	C317.567596,310.286560 323.830444,308.051056 330.387390,305.514832 
z"/>
</svg>